# Blender 4.1.1
# www.blender.org
mtllib table.mtl
o Cube
v 1.000000 0.000000 1.000000
v 1.000000 0.000000 -1.000000
v -1.000000 0.000000 1.000000
v -1.000000 0.000000 -1.000000
v 1.000000 5.000000 -1.000000
v 1.000000 5.000000 1.000000
v -1.000000 5.000000 -1.000000
v -1.000000 5.000000 1.000000
v -1.000000 6.000000 -1.000000
v 19.000000 6.000000 1.000000
v 19.000000 6.000000 -1.000000
v 17.000000 6.000000 8.000000
v 1.000000 5.000000 6.000000
v -1.000000 5.000000 6.000000
v 17.000000 6.000000 -1.000000
v -1.000000 6.000000 8.000000
v 1.000000 5.000000 8.000000
v -1.000000 5.000000 8.000000
v 1.000000 6.000000 -1.000000
v 1.000000 6.000000 8.000000
v 1.000000 0.000000 6.000000
v -1.000000 0.000000 6.000000
v 1.000000 0.000000 8.000000
v -1.000000 0.000000 8.000000
v -1.000000 6.000000 6.000000
v -1.000000 6.000000 1.000000
v 17.000000 5.000000 -1.000000
v 17.000000 5.000000 1.000000
v 17.000000 5.000000 6.000000
v 17.000000 5.000000 8.000000
v 19.000000 5.000000 -1.000000
v 19.000000 5.000000 1.000000
v 19.000000 5.000000 6.000000
v 19.000000 5.000000 8.000000
v 17.000000 0.000000 -1.000000
v 17.000000 0.000000 1.000000
v 19.000000 0.000000 -1.000000
v 19.000000 0.000000 1.000000
v 17.000000 0.000000 6.000000
v 17.000000 0.000000 8.000000
v 19.000000 0.000000 6.000000
v 19.000000 0.000000 8.000000
v 19.000000 6.000000 8.000000
v 19.000000 6.000000 6.000000
v -0.770873 6.000000 -0.770873
v 18.770872 6.000000 1.000000
v 18.770872 6.000000 -0.770873
v 17.000000 6.000000 7.770873
v 17.000000 6.000000 -0.770873
v -0.770873 6.000000 7.770873
v 1.000000 6.000000 -0.770873
v 1.000000 6.000000 7.770873
v -0.770873 6.000000 6.000000
v -0.770873 6.000000 1.000000
v 18.770872 6.000000 7.770873
v 18.770872 6.000000 6.000000
v -1.000000 6.000000 -1.000000
v 1.000000 6.000000 -1.000000
v 1.000000 6.000000 8.000000
v 17.000000 6.000000 8.000000
v 17.000000 6.000000 -1.000000
v 19.000000 6.000000 -1.000000
v 19.000000 6.000000 1.000000
v 19.000000 6.000000 6.000000
v -1.000000 6.000000 1.000000
v 19.000000 6.000000 8.000000
v -1.000000 6.000000 8.000000
v -1.000000 6.000000 6.000000
v -0.770873 6.300000 -0.770873
v 18.770872 6.300000 1.000000
v 18.770872 6.300000 -0.770873
v 17.000000 6.300000 7.770873
v 17.000000 6.300000 -0.770873
v -0.770873 6.300000 7.770873
v 1.000000 6.300000 -0.770873
v 1.000000 6.300000 7.770873
v -0.770873 6.300000 6.000000
v -0.770873 6.300000 1.000000
v 18.770872 6.300000 7.770873
v 18.770872 6.300000 6.000000
v 1.000000 6.000000 1.000000
v 1.000000 6.000000 6.000000
v 17.000000 6.000000 1.000000
v 17.000000 6.000000 6.000000
vn -1.0000 -0.0000 -0.0000
vn -0.0000 -0.0000 -1.0000
vn -0.0000 -1.0000 -0.0000
vn 1.0000 -0.0000 -0.0000
vn -0.0000 1.0000 -0.0000
vn -0.0000 -0.0000 1.0000
vn -0.7071 -0.0000 0.7071
vn -0.7071 -0.0000 -0.7071
vn 0.7071 -0.0000 -0.7071
vn -0.0000 0.6070 0.7947
vn 0.7947 0.6070 -0.0000
vn -0.0000 0.6070 -0.7947
vn -0.7947 0.6070 -0.0000
vt 0.875000 0.750000
vt 0.875000 0.500000
vt 0.625000 0.500000
vt 0.625000 0.750000
vt 0.000000 0.000000
vt 0.576653 0.689719
vt 0.080647 0.092381
vt 0.649357 0.509881
vt 0.852466 0.520324
vt 0.647503 0.741523
vt 0.622558 0.518242
vt 0.620355 0.506163
vt 0.604978 0.721454
vt 0.619599 0.716226
vt 0.860567 0.721231
vt 0.853402 0.748011
vt 0.860962 0.744478
s 0
usemtl Material1
f 69/9/5 78/15/5 77/17/5 74/16/5 76/10/5 72/7/5 79/6/5 80/13/5 70/14/5 71/11/5 73/12/5 75/8/5
f 60/4/10 66/4/10 79/6/10 72/7/10 76/10/10 74/16/10 67/1/10 59/4/10
f 63/4/11 62/3/11 71/11/11 70/14/11 80/13/11 79/6/11 66/4/11 64/4/11
f 58/3/12 57/2/12 69/9/12 75/8/12 73/12/12 71/11/12 62/3/12 61/3/12
f 57/2/13 65/1/13 68/1/13 67/1/13 74/16/13 77/17/13 78/15/13 69/9/13
f 81/4/3 83/4/3 84/4/3 82/4/3
usemtl Material2
f 8/1/1 7/2/1 4/2/1 3/1/1
f 5/3/2 2/3/2 4/2/2 7/2/2
f 2/3/3 1/4/3 3/1/3 4/2/3
f 6/4/4 1/4/4 2/3/4 5/3/4
f 5/3/5 7/2/5 8/1/5 6/4/5
f 8/1/6 3/1/6 1/4/6 6/4/6
f 8/1/1 14/1/1 25/1/1 26/1/1
f 6/4/3 13/4/3 14/1/3 8/1/3
f 32/4/4 31/3/4 11/3/4 10/4/4
f 17/5/5 13/5/5 14/5/5 18/5/5
f 13/4/2 21/4/2 22/1/2 14/1/2
f 18/1/1 14/1/1 22/1/1 24/1/1
f 17/4/6 18/1/6 24/1/6 23/4/6
f 22/1/3 21/4/3 23/4/3 24/1/3
f 5/3/3 27/3/3 28/4/3 6/4/3
f 13/4/4 6/4/4 81/4/4 82/4/4
f 28/4/3 27/3/3 31/3/3 32/4/3
f 29/4/3 28/4/3 32/4/3 33/4/3
f 30/4/5 34/4/5 33/4/5 29/4/5
f 27/3/2 31/3/2 37/3/2 35/3/2
f 27/3/1 35/3/1 36/4/1 28/4/1
f 31/3/4 32/4/4 38/4/4 37/3/4
f 32/4/6 28/4/6 36/4/6 38/4/6
f 36/4/3 35/3/3 37/3/3 38/4/3
f 30/4/6 40/4/6 42/4/6 34/4/6
f 29/4/1 39/4/1 40/4/1 30/4/1
f 33/4/4 34/4/4 42/4/4 41/4/4
f 33/4/2 41/4/2 39/4/2 29/4/2
f 39/4/3 41/4/3 42/4/3 40/4/3
f 30/5/3 17/5/3 13/5/3 29/5/3
f 23/4/4 21/4/4 13/5/4 17/4/4
f 33/4/4 32/4/4 10/4/4 44/4/4
f 17/5/6 30/5/6 12/5/6 20/5/6
f 8/1/1 26/1/1 9/2/1 7/2/1
f 17/4/6 20/4/6 16/1/6 18/1/6
f 34/4/4 33/4/4 44/4/4 43/4/4
f 31/3/2 27/3/2 15/3/2 11/3/2
f 7/2/2 9/2/2 19/3/2 5/3/2
f 30/4/6 34/4/6 43/4/6 12/4/6
f 18/1/1 16/1/1 25/1/1 14/1/1
f 27/3/2 5/3/2 19/3/2 15/3/2
f 43/4/5 12/4/5 60/4/5 66/4/5
f 55/6/2 48/7/2 72/7/2 79/6/2
f 12/5/5 20/5/5 59/5/5 60/5/5
f 10/4/5 44/4/5 64/4/5 63/4/5
f 20/4/5 16/1/5 67/1/5 59/4/5
f 15/3/5 11/3/5 62/3/5 61/3/5
f 26/1/5 9/2/5 57/2/5 65/1/5
f 19/3/5 15/3/5 61/3/5 58/3/5
f 16/1/5 25/1/5 68/1/5 67/1/5
f 9/2/5 19/3/5 58/3/5 57/2/5
f 44/4/5 43/4/5 66/4/5 64/4/5
f 25/1/5 26/1/5 65/1/5 68/1/5
f 11/3/5 10/4/5 63/4/5 62/3/5
f 51/8/3 45/9/3 57/2/3 58/3/3
f 52/10/3 48/7/3 60/5/3 59/4/3
f 47/11/3 49/12/3 61/3/3 62/3/3
f 56/13/3 46/14/3 63/4/3 64/4/3
f 45/9/3 54/15/3 65/1/3 57/2/3
f 46/14/3 47/11/3 62/3/3 63/4/3
f 48/7/3 55/6/3 66/4/3 60/5/3
f 55/6/3 56/13/3 64/4/3 66/4/3
f 50/16/3 52/10/3 59/4/3 67/1/3
f 49/12/3 51/8/3 58/3/3 61/3/3
f 53/17/3 50/16/3 67/1/3 68/1/3
f 54/15/3 53/17/3 68/1/3 65/1/3
f 46/14/1 56/13/1 80/13/1 70/14/1
f 50/16/4 53/17/4 77/17/4 74/16/4
f 45/9/6 51/8/6 75/8/6 69/9/6
f 56/13/1 55/6/1 79/6/1 80/13/1
f 54/15/4 45/9/4 69/9/4 78/15/4
f 53/17/4 54/15/4 78/15/4 77/17/4
f 48/7/2 52/10/2 76/10/2 72/7/2
f 52/10/2 50/16/2 74/16/2 76/10/2
f 47/11/1 46/14/1 70/14/1 71/11/1
f 49/12/6 47/11/6 71/11/6 73/12/6
f 51/8/6 49/12/6 73/12/6 75/8/6
f 55/6/7 66/4/7 79/6/7
f 80/13/2 64/4/2 56/13/2
f 48/7/4 72/7/4 60/5/4
f 63/4/6 70/14/6 46/14/6
f 71/11/8 62/3/8 47/11/8
f 73/12/4 49/12/4 61/3/4
f 51/8/1 75/8/1 58/3/1
f 57/2/9 69/9/9 45/9/9
f 78/15/2 54/15/2 65/1/2
f 53/17/6 77/17/6 68/1/6
f 50/16/8 67/1/8 74/16/8
f 52/10/4 76/10/4 59/4/4
f 29/5/2 13/5/2 82/5/2 84/5/2
f 28/4/1 29/4/1 84/4/1 83/4/1
f 6/4/6 28/4/6 83/4/6 81/4/6
